RBDS012runT35_grf
version=1
nRows=27
nColumns=19
inDegrees=no
endheader
time	ground_force_r_vx	ground_force_r_vy	ground_force_r_vz	ground_force_r_px	ground_force_r_py	ground_force_r_pz	ground_force_r_mx	ground_force_r_my	ground_force_r_mz	ground_force_l_vx	ground_force_l_vy	ground_force_l_vz	ground_force_l_px	ground_force_l_py	ground_force_l_pz	ground_force_l_mx	ground_force_l_my	ground_force_l_mz
     22.49800000	    -62.88040498	    615.53718622	      6.01928737	      2.36230392	      0.00000000	      1.07720940	      0.00000000	      3.80476554	     -0.00000000	      0.00000000	      0.00000000	      0.00000000	      0.00000000	      0.00000000	      0.00000000	      0.00000000	      0.00000000	      0.00000000
     22.49900000	    -66.37647051	    640.19583978	      5.45953200	      2.36241442	      0.00000000	      1.07723573	      0.00000000	      3.89640406	     -0.00000000	      0.00000000	      0.00000000	      0.00000000	      0.00000000	      0.00000000	      0.00000000	      0.00000000	      0.00000000	      0.00000000
     22.50000000	    -69.87253604	    664.85449334	      4.89977663	      2.36252492	      0.00000000	      1.07726206	      0.00000000	      3.98804258	     -0.00000000	      0.00000000	      0.00000000	      0.00000000	      0.00000000	      0.00000000	      0.00000000	      0.00000000	      0.00000000	      0.00000000
     22.50100000	    -73.60637843	    688.48912527	      4.19894908	      2.36253594	      0.00000000	      1.07728042	      0.00000000	      4.09087513	     -0.00000000	      0.00000000	      0.00000000	      0.00000000	      0.00000000	      0.00000000	      0.00000000	      0.00000000	      0.00000000	      0.00000000
     22.50200000	    -77.34022082	    712.12375719	      3.49812154	      2.36254695	      0.00000000	      1.07729878	      0.00000000	      4.19370769	     -0.00000000	      0.00000000	      0.00000000	      0.00000000	      0.00000000	      0.00000000	      0.00000000	      0.00000000	      0.00000000	      0.00000000
     22.50300000	    -81.07406320	    735.75838911	      2.79729400	      2.36255796	      0.00000000	      1.07731714	      0.00000000	      4.29654025	     -0.00000000	      0.00000000	      0.00000000	      0.00000000	      0.00000000	      0.00000000	      0.00000000	      0.00000000	      0.00000000	      0.00000000
     22.50400000	    -84.94291544	    758.68123391	      2.00497117	      2.36249151	      0.00000000	      1.07733002	      0.00000000	      4.40705103	     -0.00000000	      0.00000000	      0.00000000	      0.00000000	      0.00000000	      0.00000000	      0.00000000	      0.00000000	      0.00000000	      0.00000000
     22.50500000	    -88.87927259	    781.24818517	      1.16690071	      2.36238633	      0.00000000	      1.07734015	      0.00000000	      4.52140093	     -0.00000000	      0.00000000	      0.00000000	      0.00000000	      0.00000000	      0.00000000	      0.00000000	      0.00000000	      0.00000000	      0.00000000
     22.50600000	    -92.81562975	    803.81513642	      0.32883024	      2.36228115	      0.00000000	      1.07735029	      0.00000000	      4.63575082	     -0.00000000	      0.00000000	      0.00000000	      0.00000000	      0.00000000	      0.00000000	      0.00000000	      0.00000000	      0.00000000	      0.00000000
     22.50700000	    -96.80229274	    826.02073515	     -0.55179262	      2.36213210	      0.00000000	      1.07735768	      0.00000000	      4.75394077	     -0.00000000	      0.00000000	      0.00000000	      0.00000000	      0.00000000	      0.00000000	      0.00000000	      0.00000000	      0.00000000	      0.00000000
     22.50800000	   -100.88956742	    847.50362886	     -1.51752030	      2.36189528	      0.00000000	      1.07735961	      0.00000000	      4.87981083	     -0.00000000	      0.00000000	      0.00000000	      0.00000000	      0.00000000	      0.00000000	      0.00000000	      0.00000000	      0.00000000	      0.00000000
     22.50900000	   -104.97684209	    868.98652258	     -2.48324797	      2.36165846	      0.00000000	      1.07736153	      0.00000000	      5.00568089	     -0.00000000	      0.00000000	      0.00000000	      0.00000000	      0.00000000	      0.00000000	      0.00000000	      0.00000000	      0.00000000	      0.00000000
     22.51000000	   -109.06411677	    890.46941629	     -3.44897565	      2.36142165	      0.00000000	      1.07736346	      0.00000000	      5.13155096	     -0.00000000	      0.00000000	      0.00000000	      0.00000000	      0.00000000	      0.00000000	      0.00000000	      0.00000000	      0.00000000	      0.00000000
     22.51100000	   -113.23587373	    910.87669438	     -4.52781432	      2.36103927	      0.00000000	      1.07735747	      0.00000000	      5.26862625	     -0.00000000	      0.00000000	      0.00000000	      0.00000000	      0.00000000	      0.00000000	      0.00000000	      0.00000000	      0.00000000	      0.00000000
     22.51200000	   -117.40763070	    931.28397247	     -5.60665300	      2.36065689	      0.00000000	      1.07735148	      0.00000000	      5.40570155	     -0.00000000	      0.00000000	      0.00000000	      0.00000000	      0.00000000	      0.00000000	      0.00000000	      0.00000000	      0.00000000	      0.00000000
     22.51300000	   -121.57938767	    951.69125056	     -6.68549167	      2.36027451	      0.00000000	      1.07734549	      0.00000000	      5.54277685	     -0.00000000	      0.00000000	      0.00000000	      0.00000000	      0.00000000	      0.00000000	      0.00000000	      0.00000000	      0.00000000	      0.00000000
     22.51400000	   -125.75486661	    971.40115529	     -7.82741889	      2.35978696	      0.00000000	      1.07733462	      0.00000000	      5.68690566	     -0.00000000	      0.00000000	      0.00000000	      0.00000000	      0.00000000	      0.00000000	      0.00000000	      0.00000000	      0.00000000	      0.00000000
     22.51500000	   -129.93220654	    990.76237334	     -9.00089038	      2.35924683	      0.00000000	      1.07732130	      0.00000000	      5.83456124	     -0.00000000	      0.00000000	      0.00000000	      0.00000000	      0.00000000	      0.00000000	      0.00000000	      0.00000000	      0.00000000	      0.00000000
     22.51600000	   -134.10954646	   1010.12359139	    -10.17436186	      2.35870669	      0.00000000	      1.07730798	      0.00000000	      5.98221681	     -0.00000000	      0.00000000	      0.00000000	      0.00000000	      0.00000000	      0.00000000	      0.00000000	      0.00000000	      0.00000000	      0.00000000
     22.51700000	   -138.25933175	   1029.15143244	    -11.37228973	      2.35811055	      0.00000000	      1.07729251	      0.00000000	      6.13309309	     -0.00000000	      0.00000000	      0.00000000	      0.00000000	      0.00000000	      0.00000000	      0.00000000	      0.00000000	      0.00000000	      0.00000000
     22.51800000	   -142.35400774	   1047.51251949	    -12.61913036	      2.35740238	      0.00000000	      1.07727272	      0.00000000	      6.29041078	     -0.00000000	      0.00000000	      0.00000000	      0.00000000	      0.00000000	      0.00000000	      0.00000000	      0.00000000	      0.00000000	      0.00000000
     22.51900000	   -146.44868373	   1065.87360654	    -13.86597099	      2.35669422	      0.00000000	      1.07725293	      0.00000000	      6.44772846	     -0.00000000	      0.00000000	      0.00000000	      0.00000000	      0.00000000	      0.00000000	      0.00000000	      0.00000000	      0.00000000	      0.00000000
     22.52000000	   -150.54335972	   1084.23469360	    -15.11281162	      2.35598606	      0.00000000	      1.07723314	      0.00000000	      6.60504615	     -0.00000000	      0.00000000	      0.00000000	      0.00000000	      0.00000000	      0.00000000	      0.00000000	      0.00000000	      0.00000000	      0.00000000
     22.52100000	   -154.46145505	   1101.65251565	    -16.41014178	      2.35510168	      0.00000000	      1.07720800	      0.00000000	      6.77084094	     -0.00000000	      0.00000000	      0.00000000	      0.00000000	      0.00000000	      0.00000000	      0.00000000	      0.00000000	      0.00000000	      0.00000000
     22.52200000	   -158.37955037	   1119.07033770	    -17.70747194	      2.35421730	      0.00000000	      1.07718285	      0.00000000	      6.93663574	     -0.00000000	      0.00000000	      0.00000000	      0.00000000	      0.00000000	      0.00000000	      0.00000000	      0.00000000	      0.00000000	      0.00000000
     22.52300000	   -162.29764570	   1136.48815975	    -19.00480210	      2.35333292	      0.00000000	      1.07715771	      0.00000000	      7.10243053	     -0.00000000	      0.00000000	      0.00000000	      0.00000000	      0.00000000	      0.00000000	      0.00000000	      0.00000000	      0.00000000	      0.00000000
     22.52400000	   -166.03430983	   1153.31852746	    -20.32021204	      2.35232708	      0.00000000	      1.07712988	      0.00000000	      7.27292885	     -0.00000000	      0.00000000	      0.00000000	      0.00000000	      0.00000000	      0.00000000	      0.00000000	      0.00000000	      0.00000000	      0.00000000
